<?xml version="1.0" encoding="UTF-8" standalone="no"?>
<!-- Created with Inkscape (http://www.inkscape.org/) -->
<svg
   xmlns:dc="http://purl.org/dc/elements/1.1/"
   xmlns:cc="http://web.resource.org/cc/"
   xmlns:rdf="http://www.w3.org/1999/02/22-rdf-syntax-ns#"
   xmlns:svg="http://www.w3.org/2000/svg"
   xmlns="http://www.w3.org/2000/svg"
   xmlns:sodipodi="http://sodipodi.sourceforge.net/DTD/sodipodi-0.dtd"
   xmlns:inkscape="http://www.inkscape.org/namespaces/inkscape"
   width="1036.4165"
   height="512.21191"
   id="svg2"
   sodipodi:version="0.32"
   inkscape:version="0.45"
   version="1.0"
   sodipodi:docbase="C:\Documents and Settings\moi\Bureau"
   sodipodi:docname="Moheli island map-general view-fr.svg"
   inkscape:output_extension="org.inkscape.output.svg.inkscape"
   sodipodi:modified="true">
  <defs
     id="defs4" />
  <sodipodi:namedview
     id="base"
     pagecolor="#ffffff"
     bordercolor="#666666"
     borderopacity="1.0"
     inkscape:pageopacity="0.0"
     inkscape:pageshadow="2"
     inkscape:zoom="0.7"
     inkscape:cx="551.96059"
     inkscape:cy="233.18388"
     inkscape:document-units="px"
     inkscape:current-layer="layer1"
     width="1052.3622px"
     height="744.09448px"
     inkscape:window-width="1024"
     inkscape:window-height="712"
     inkscape:window-x="-4"
     inkscape:window-y="-4" />
  <metadata
     id="metadata7">
    <rdf:RDF>
      <cc:Work
         rdf:about="">
        <dc:format>image/svg+xml</dc:format>
        <dc:type
           rdf:resource="http://purl.org/dc/dcmitype/StillImage" />
      </cc:Work>
    </rdf:RDF>
  </metadata>
  <g
     inkscape:label="Calque 1"
     inkscape:groupmode="layer"
     id="layer1"
     transform="translate(-6.0807476,-15.929788)">
    <rect
       style="opacity:1;fill:#daf0fd;fill-opacity:1;fill-rule:evenodd;stroke:none;stroke-width:2;stroke-linecap:round;stroke-linejoin:round;stroke-miterlimit:4;stroke-dasharray:none;stroke-dashoffset:0;stroke-opacity:1"
       id="rect6045"
       width="1036.4165"
       height="512.21191"
       x="6.0807476"
       y="15.929788" />
    <rect
       style="opacity:1;fill:#ffffff;fill-opacity:1;fill-rule:evenodd;stroke:#000000;stroke-width:1.59270251;stroke-linecap:round;stroke-linejoin:round;stroke-miterlimit:4;stroke-dasharray:none;stroke-dashoffset:0;stroke-opacity:1"
       id="rect6760"
       width="180.4073"
       height="121.12519"
       x="850.16278"
       y="19.366615" />
    <g
       id="g6047"
       transform="translate(12.121831,-84.852814)">
      <path
         sodipodi:nodetypes="cccc"
         id="path2223"
         d="M 854.52222,135.23037 L 854.52222,142.30143 L 990.89282,142.30143 L 990.89282,135.23037"
         style="fill:none;fill-opacity:0.75;fill-rule:evenodd;stroke:#000000;stroke-width:1px;stroke-linecap:butt;stroke-linejoin:miter;stroke-opacity:1" />
      <text
         sodipodi:linespacing="100%"
         id="text2225"
         y="128.15932"
         x="854.52222"
         style="font-size:16px;font-style:normal;font-variant:normal;font-weight:normal;font-stretch:normal;text-align:center;line-height:100%;writing-mode:lr-tb;text-anchor:middle;fill:#000000;fill-opacity:1;stroke:none;stroke-width:1px;stroke-linecap:butt;stroke-linejoin:miter;stroke-opacity:1;font-family:Times New Roman"
         xml:space="preserve"><tspan
           y="128.15932"
           x="854.52222"
           id="tspan2227"
           sodipodi:role="line">0</tspan></text>
      <text
         sodipodi:linespacing="100%"
         id="text2229"
         y="128.30775"
         x="993.41431"
         style="font-size:16px;font-style:normal;font-variant:normal;font-weight:normal;font-stretch:normal;text-align:center;line-height:100%;writing-mode:lr-tb;text-anchor:middle;fill:#000000;fill-opacity:1;stroke:none;stroke-width:1px;stroke-linecap:butt;stroke-linejoin:miter;stroke-opacity:1;font-family:Times New Roman"
         xml:space="preserve"><tspan
           y="128.30775"
           x="993.41431"
           id="tspan2231"
           sodipodi:role="line">5 km</tspan></text>
    </g>
    <path
       style="fill:#fcf5e3;fill-opacity:1;fill-rule:evenodd;stroke:#27aaea;stroke-width:1px;stroke-linecap:butt;stroke-linejoin:miter;stroke-opacity:1"
       d="M 192.85714,458.11305 C 192.73236,457.43045 195.15816,455.28313 196.78571,453.11305 C 197.91724,451.60436 197.85714,449.44891 197.85714,447.39877 C 197.85714,444.32172 195.85251,443.9368 193.92857,444.89877 C 191.78977,445.96817 190.51099,445.85481 188.92857,447.04163 C 187.63841,448.00925 187.5,449.8745 187.5,451.68448 C 187.5,453.70002 187.47982,455.88949 187.85714,457.39877 C 188.2981,459.16261 191.26319,458.43184 192.85714,458.11305 z "
       id="path2233"
       transform="translate(4.0604424,14.177689)" />
    <path
       style="fill:#fcf5e3;fill-opacity:1;fill-rule:evenodd;stroke:#27aaea;stroke-width:1px;stroke-linecap:butt;stroke-linejoin:miter;stroke-opacity:1"
       d="M 213.57143,443.11305 C 213.79694,444.01508 211.56021,444.35388 211.78571,445.25591 C 211.99663,446.09957 213.90081,445.08933 213.57143,443.11305 z "
       id="path2235"
       transform="translate(4.0604424,14.177689)" />
    <path
       style="fill:#fcf5e3;fill-opacity:1;fill-rule:evenodd;stroke:#27aaea;stroke-width:1px;stroke-linecap:butt;stroke-linejoin:miter;stroke-opacity:1"
       d="M 226.20329,496.57645 C 229.50996,495.61941 230.64775,491.39458 233.31439,490.30048 C 236.58288,489.66749 238.3627,493.55643 240.50994,494.1468 C 243.20246,492.20171 243.32407,488.44757 244.80984,485.66486 C 246.70291,481.12766 248.096,476.30573 250.7355,472.13601 C 252.83656,470.64202 255.08453,468.4712 257.60499,468.11009 C 260.61517,468.23727 265.57103,468.99849 265.27312,472.94111 C 266.0899,477.6131 263.60781,482.02316 263.95942,486.69563 C 264.22211,489.90998 262.95571,493.47765 264.40207,496.44181 C 265.72509,499.1397 266.97666,502.00912 269.88122,503.33563 C 272.73293,505.07864 275.36179,507.12993 276.33988,510.46242 C 277.15026,512.30798 279.24391,515.57595 280.7325,515.40542 C 282.97566,512.66698 281.16351,509.04342 281.33618,505.86904 C 281.1384,501.94399 283.8443,497.63744 281.06317,493.99225 C 279.42443,490.67779 279.71085,486.65883 278.52097,483.13206 C 277.17239,479.05593 278.82417,474.97604 279.47105,470.94996 C 280.40337,466.49128 280.94739,461.88863 283.03258,457.77404 C 283.56829,455.52605 286.08715,451.06372 284.2353,449.75758 C 280.59127,448.53024 276.7215,449.49643 273.54542,451.48135 C 270.36481,452.46828 269.17675,455.84982 266.64247,457.74413 C 264.26279,459.34103 262.22767,461.74179 259.75732,462.99882 C 255.6142,462.63276 251.77753,464.49307 247.80639,465.33494 C 244.24214,465.99848 242.41652,469.56276 241.04928,472.59962 C 240.26919,475.86097 237.33,477.02291 234.51086,478.16328 C 231.93494,479.62076 229.49077,481.42239 227.35687,483.46324 C 224.96227,487.18712 223.16015,491.37306 222.98901,495.86217 C 224.06044,496.10025 225.13188,496.33839 226.20329,496.57645 z "
       id="path2237" />
    <path
       style="fill:#fcf5e3;fill-opacity:1;fill-rule:evenodd;stroke:#27aaea;stroke-width:1px;stroke-linecap:butt;stroke-linejoin:miter;stroke-opacity:1"
       d="M 422.14286,498.11305 C 422.86015,497.0761 424.52897,494.95571 426.07143,494.18448 C 428.01075,493.21482 428.17595,490.53637 427.5,489.18448 C 426.31193,486.80834 424.28886,485.97648 423.21429,483.82734 C 422.15973,481.71822 417.70065,481.59487 416.42858,479.89877 C 415.25462,478.3335 414.14182,477.32595 412.85714,475.61305 C 411.46262,473.75368 409.2252,473.14035 408.21429,470.61305 C 407.45549,468.71605 406.21857,466.97876 405.35714,465.25591 C 404.34812,463.23786 402.74331,461.81396 401.78571,459.89877 C 400.47146,457.27026 399.2246,457.62528 396.78571,458.11306 C 394.43812,458.58258 395.98254,460.25751 396.42857,462.04162 C 396.78756,463.47759 396.48533,463.5837 397.14286,464.89877 C 397.81617,466.24539 399.00126,467.18699 399.64286,468.4702 C 400.25562,469.69572 401.2721,470.81372 402.14286,471.68448 C 402.85476,472.39638 403.13358,474.73736 403.57143,475.61305 C 404.18591,476.84202 404.92162,478.03468 405.71429,478.82734 C 406.82874,479.94179 407.6611,480.33646 408.92857,480.9702 C 410.36408,481.68795 410.96913,482.37319 412.5,482.75591 C 413.92794,483.1129 414.58642,484.48519 415.35714,485.25591 C 416.56735,486.46612 416.42857,487.78314 416.42857,489.89877 C 416.42857,491.84802 416.43379,494.20535 416.78571,495.61305 C 417.17195,497.15801 418.32162,497.80958 419.64286,498.4702 C 420.84669,499.07211 419.8817,499.01752 422.14286,498.11305 z "
       id="path2241"
       transform="translate(4.0604424,14.177689)"
       sodipodi:nodetypes="csssssssssssssssssssssc" />
    <path
       style="fill:#fcf5e3;fill-opacity:1;fill-rule:evenodd;stroke:#27aaea;stroke-width:1px;stroke-linecap:butt;stroke-linejoin:miter;stroke-opacity:1"
       d="M 460,413.4702 C 460.99537,413.45834 463.35349,413.77285 465,414.18448 C 467.73492,414.86821 463.7674,410.17533 463.21429,409.89877 C 461.50466,409.04396 460.33076,405.56028 459.64286,404.18448 C 458.6554,402.20956 456.1926,399.95935 454.64286,399.18448 C 453.72162,398.72386 453.92857,403.96203 453.92857,404.54163 C 453.92857,405.33887 455.0738,407.33684 455.35714,408.4702 C 455.67981,409.76086 456.79362,410.9781 457.5,411.68448 C 458.62591,412.8104 457.67484,412.54013 460,413.4702 z "
       id="path2243"
       transform="translate(4.0604424,14.177689)" />
    <path
       style="fill:#fcf5e3;fill-opacity:1;fill-rule:evenodd;stroke:#27aaea;stroke-width:1px;stroke-linecap:butt;stroke-linejoin:miter;stroke-opacity:1"
       d="M 382.63187,513.005 C 378.43015,510.68834 374.10563,508.56752 370.13188,505.86217 C 371.96939,502.02997 372.44683,497.75914 373.00129,493.5994 C 375.54906,488.71969 373.95129,482.77404 373.63139,477.01328 C 373.52833,473.39603 374.80105,469.15487 371.42413,466.67326 C 368.65225,463.43825 365.7043,460.35966 362.91815,457.13723 C 360.52941,453.80245 360.8171,449.92297 361.63991,446.10935 C 362.08242,443.03282 363.34443,440.25417 365.56982,438.08035 C 367.48931,435.4252 370.87992,435.05495 373.02683,437.62993 C 378.49719,441.2842 384.49759,444.1911 389.38754,448.65257 C 392.94139,450.25724 390.38464,454.06396 387.29083,454.24685 C 384.51859,455.16274 380.84748,453.20667 378.64932,455.63928 C 377.14876,457.59202 374.4905,459.62962 376.34343,462.16002 C 378.40738,467.95747 379.77893,473.97255 381.24374,479.93918 C 382.31534,490.92843 382.20039,501.98218 382.63187,513.005 z "
       id="path2245"
       sodipodi:nodetypes="ccccccccccccccc" />
    <path
       style="fill:#fcf5e3;fill-opacity:1;fill-rule:evenodd;stroke:#27aaea;stroke-width:1px;stroke-linecap:butt;stroke-linejoin:miter;stroke-opacity:1"
       d="M 857.85714,368.11305 C 856.33394,368.54788 853.92857,368.2447 853.92857,370.9702 C 853.92857,373.00934 857.1694,371.27426 857.5,370.61305 C 858.19561,369.22184 859.09925,371.21831 857.85714,368.11305 z "
       id="path3221"
       transform="translate(4.0604424,14.177689)" />
    <path
       style="fill:#fcf5e3;fill-opacity:1;fill-rule:evenodd;stroke:#27aaea;stroke-width:1px;stroke-linecap:butt;stroke-linejoin:miter;stroke-opacity:1"
       d="M 907.14286,386.68448 C 908.02091,384.92838 905.71429,390.43538 905.71429,392.39877 C 905.71429,393.60443 908.08369,394.33041 908.92857,394.54163 C 911.01187,395.06245 911.86132,395.39668 913.57143,394.54163 C 915.1735,393.74059 915.98254,392.12892 916.42857,389.89877 C 916.64816,388.80082 912.81575,385.66793 911.78572,385.25591 C 909.85116,384.48209 908.36522,384.23976 907.14286,386.68448 z "
       id="path3223"
       transform="translate(4.0604424,14.177689)" />
    <path
       style="fill:#fcf5e3;fill-opacity:1;fill-rule:evenodd;stroke:#27aaea;stroke-width:1px;stroke-linecap:butt;stroke-linejoin:miter;stroke-opacity:1"
       d="M 992.5,362.75591 C 992.29936,362.67565 991.18049,359.54163 988.21429,359.54163 C 986.13639,359.54163 986.81538,362.4581 987.14286,363.11305 C 988.09471,365.01677 989.53441,364.41728 990.71429,363.82734 C 991.33516,363.5169 991.90476,363.11305 992.5,362.75591 z "
       id="path3225"
       transform="translate(4.0604424,14.177689)" />
    <path
       style="opacity:1;fill:#fcf5e3;fill-opacity:1;fill-rule:evenodd;stroke:#27aaea;stroke-width:1px;stroke-linecap:butt;stroke-linejoin:miter;stroke-opacity:1"
       d="M 607.6266,195.23186 C 624.6594,212.02032 637.86746,236.54786 663.18495,241.1938 C 670.35092,231.02323 679.76464,234.33867 689.48486,238.62869 C 699.22323,241.72611 710.47058,242.57403 715.26932,253.03511 C 723.27393,255.85183 733.59274,255.62896 740.55351,263.28904 C 754.19364,271.81201 766.64857,282.04191 779.85762,291.19637 C 789.92752,285.13164 794.14024,300.58552 800.91579,305.57854 C 808.49384,307.20182 822.51627,312.20803 815.33253,322.46459 C 810.66959,333.26688 820.94877,339.25995 827.92745,345.56303 C 840.23509,354.1846 846.00963,368.77462 844.40697,383.54734 C 844.38525,394.30425 827.21727,400.7886 833.133,412.87613 C 834.80012,420.08334 846.71423,434.17111 833.79654,435.64818 C 822.09173,437.87941 813.09506,430.51283 806.91293,421.41916 C 800.13925,414.31449 791.34854,409.69872 782.44112,416.43204 C 773.40746,422.86693 766.27602,410.17408 756.22165,414.36079 C 748.1265,404.35965 738.59525,418.82684 730.95604,411.46233 C 718.36723,403.88953 703.99847,396.17345 688.94386,397.26238 C 686.79738,412.02077 673.76704,402.50336 680.3359,391.92313 C 680.27569,381.39776 665.40602,386.71653 658.53129,386.13086 C 648.74048,388.00855 640.50589,379.48361 630.70745,384.35663 C 612.68479,391.32796 597.47675,377.05363 582.87782,368.97811 C 573.02032,370.29059 562.68545,378.25249 571.94957,387.73433 C 582.22681,393.23052 569.57083,407.60212 565.38234,394.81564 C 558.58758,384.79564 559.61199,367.68075 546.35619,363.85303 C 536.77316,366.29647 530.11582,359.69082 522.67763,356.00726 C 509.96969,359.59716 502.02496,344.77861 489.9438,346.24968 C 479.30111,353.22109 491.62436,363.77191 484.59466,371.39433 C 477.92498,376.44592 467.08737,366.14927 462.27992,360.29781 C 456.59765,351.69221 447.31178,360.55082 439.94127,352.81566 C 432.42905,349.1081 417.25257,354.51839 418.87383,364.33415 C 418.16389,378.46292 403.74738,370.56614 396.67075,365.38491 C 394.79481,356.7348 389.48384,348.19819 379.33211,347.76491 C 370.63518,345.67483 359.2815,356.71959 356.60368,343.21922 C 345.69626,330.00632 347.94931,357.96327 338.42094,347.25981 C 328.50094,347.43173 329.07362,360.27328 317.20772,359.38164 C 307.04302,363.12265 301.04657,349.80351 291.59202,357.90061 C 280.97273,364.1648 279.30809,351.62678 278.6292,344.25261 C 274.65687,331.54837 265.94293,351.02916 257.29615,346.75475 C 247.4604,348.14434 239.56993,337.58247 246.04032,329.2269 C 250.48196,318.29715 270.45845,312.88076 264.78982,298.50996 C 262.78732,289.62128 259.78331,282.54828 253.43363,276.45054 C 252.78593,266.05441 247.84208,257.62389 237.94798,255.78785 C 229.32291,251.30313 222.9713,241.4798 213.61125,239.56627 C 204.41007,242.82918 195.47345,238.49938 186.89806,236.64812 C 181.8472,240.03177 162.19591,241.02924 168.47653,233.49072 C 175.52524,229.23106 189.03981,220.70654 180.83414,211.89564 C 168.94267,200.77098 176.73602,180.80519 163.99759,169.95328 C 156.04197,163.70231 153.16693,154.52779 148.24234,146.47463 C 142.36351,139.67383 153.57139,130.90008 147.04604,121.26992 C 142.29678,104.97263 157.05039,90.658441 153.05794,74.518635 C 156.15568,66.104527 160.28076,52.388752 171.83014,59.394474 C 182.18687,59.768698 196.86662,63.425391 201.35914,50.856926 C 204.92014,44.262458 209.65682,29.791736 218.07925,32.02546 C 225.67004,38.284563 234.94963,30.986588 242.45644,35.122685 C 243.73567,45.338008 247.92246,53.88569 259.12396,55.325737 C 268.17579,52.079329 277.78159,41.436147 285.81864,51.739087 C 301.98877,57.543634 319.77549,58.528729 336.81742,59.871422 C 349.19036,59.976987 357.78374,72.219489 367.87145,78.400049 C 387.72042,95.039177 415.18842,92.598668 439.4362,93.711533 C 448.7121,82.157556 455.06416,93.892367 457.11385,103.81306 C 468.76576,115.59446 481.16068,129.16023 498.53011,131.08718 C 508.96329,143.79747 524.76069,151.87168 541.38471,148.90566 C 552.8704,146.24979 558.61765,157.01982 560.82459,166.42823 C 563.94698,174.38857 570.10784,187.92152 579.56059,186.19785 C 590.02593,181.28325 595.41763,194.6017 603.8902,195.01208 C 605.13567,195.08534 606.38113,195.1586 607.6266,195.23186 z "
       id="path3227" />
    <path
       style="fill:none;fill-opacity:0.75;fill-rule:evenodd;stroke:#000000;stroke-width:3;stroke-linecap:butt;stroke-linejoin:miter;stroke-miterlimit:4;stroke-dasharray:none;stroke-opacity:1"
       d="M 171.20329,118.36217 C 179.06877,113.12278 173.45301,106.22614 171.91759,99.320547 C 174.82573,91.495558 165.5831,85.968108 168.8785,78.79119 C 171.47653,68.28525 184.41211,71.225305 192.63187,69.790741 C 201.05564,71.737375 205.83149,68.592743 207.51441,60.196185 C 209.69502,52.032747 216.49086,49.924064 222.30306,54.350836 C 229.54057,50.79289 235.45234,46.872389 238.36834,57.111962 C 242.92574,64.644321 252.32124,69.540928 260.84648,69.286393 C 267.90755,64.885523 275.5402,63.041588 283.81636,64.076458 C 292.82548,64.431703 301.28734,68.753339 310.489,69.076458 C 322.44049,69.164252 330.98232,78.428397 340.21789,84.328074 C 352.82165,88.424578 366.00204,86.966073 378.77832,90.083293 C 386.55933,92.241442 389.85242,103.52086 399.14152,103.15368 C 414.71224,107.57729 433.13398,99.358531 446.8058,110.61374 C 459.23657,118.14912 466.66197,132.13687 478.69468,139.89532 C 492.16538,145.93408 505.0555,154.42556 520.29768,154.48629 C 530.21602,158.13985 538.819,165.57208 548.34615,170.50504 C 552.18851,177.08597 554.59949,185.11725 562.78934,187.29311 C 571.99089,193.58425 584.48565,195.78629 591.55166,204.49427 C 592.16274,215.38792 603.96185,218.90303 609.45882,226.62051 C 613.85898,233.42911 611.56553,240.185 608.34615,246.9336 C 609.78416,257.04803 593.3678,257.61995 599.00084,267.20523 C 609.24152,271.60169 602.69555,285.47338 614.19258,287.66081 C 619.01076,293.97329 626.54995,295.96975 633.96556,296.72188 C 644.30363,297.59936 639.48132,306.92204 638.95149,313.85356 C 638.22091,320.04807 640.41118,328.48281 647.17101,330.3978 C 655.83192,336.53022 646.47858,340.51618 641.35263,344.74055 C 627.94599,348.51674 630.36137,360.4576 626.94044,371.24297 C 621.21831,375.75228 611.04622,374.81843 604.95065,369.95513 C 597.55782,366.01504 590.26332,361.9361 584.39308,355.84612 C 575.89662,352.94596 569.88807,365.94733 561.86965,360.00799 C 546.52714,351.43185 527.46445,353.05178 513.12805,342.18441 C 504.89839,339.90706 502.06329,328.67369 492.48205,330.26701 C 484.85159,330.79307 476.4641,331.47776 471.2886,337.82717 C 465.70989,343.31389 458.75048,344.88391 451.24757,342.79545 C 438.5843,341.09713 425.77657,335.84326 413.20198,340.62629 C 402.02976,344.76666 395.19971,331.12303 384.39314,331.21863 C 377.02177,334.77725 367.38764,338.82343 359.76967,333.12205 C 353.99241,329.26947 354.01091,320.11686 352.07575,313.75433 C 352.16757,306.13252 347.64492,300.54079 340.06132,299.28958 C 331.96394,297.58136 324.1038,292.55694 315.69249,295.23696 C 311.64255,301.48381 315.20008,310.24954 308.00752,314.74971 C 303.2274,320.54536 294.98175,318.88375 289.44088,314.94076 C 281.42436,307.93195 273.14388,300.83354 268.21532,291.19637 C 275.73166,287.96863 274.99353,279.26951 270.9088,273.51809 C 266.23024,263.02251 258.72245,253.46704 250.97743,245.24312 C 240.86029,243.06513 231.03,242.03821 224.77876,231.09229 C 217.49094,222.85674 203.01365,230.97943 197.02501,220.51111 C 188.26848,213.41446 185.21885,201.73437 181.84729,191.522 C 182.84772,184.28353 180.4429,177.39815 178.47926,170.82578 C 180.03878,165.8741 190.75639,157.2268 179.47833,156.34099 C 171.99372,158.36504 165.27979,153.31451 170.23053,145.73439 C 172.9532,137.59031 168.54894,134.90033 161.39142,132.11404 C 151.91695,127.88864 164.3503,123.23904 168.53554,120.25974 C 169.42479,119.62722 170.31404,118.99469 171.20329,118.36217 z "
       id="path3234" />
    <g
       id="g4235">
      <path
         sodipodi:nodetypes="csc"
         id="path4228"
         d="M 406.56042,341.21933 C 407.50952,345.40191 408.86589,349.5366 409.41759,353.76483 C 409.79847,356.68394 409.41759,359.68688 409.41759,362.6479"
         style="fill:none;fill-opacity:0.75;fill-rule:evenodd;stroke:#000000;stroke-width:3;stroke-linecap:butt;stroke-linejoin:miter;stroke-miterlimit:4;stroke-dasharray:none;stroke-opacity:1" />
      <path
         sodipodi:nodetypes="csc"
         id="path4233"
         d="M 406.62,341.63774 C 407.5691,345.82032 408.92547,349.95501 409.47717,354.18324 C 409.85805,357.10235 409.47717,360.10529 409.47717,363.06631"
         style="fill:none;fill-opacity:0.75;fill-rule:evenodd;stroke:#ffffff;stroke-width:2;stroke-linecap:butt;stroke-linejoin:miter;stroke-miterlimit:4;stroke-dasharray:none;stroke-opacity:1" />
    </g>
    <path
       style="fill:none;fill-opacity:0.75;fill-rule:evenodd;stroke:#ffffff;stroke-width:2;stroke-linecap:butt;stroke-linejoin:miter;stroke-miterlimit:4;stroke-dasharray:none;stroke-opacity:1"
       d="M 171.22801,118.34791 C 179.09349,113.10852 173.47773,106.21188 171.94231,99.306289 C 174.85045,91.481299 165.60782,85.953849 168.90322,78.77693 C 171.50125,68.27099 184.43683,71.211045 192.65659,69.776481 C 201.08036,71.723115 205.85621,68.578483 207.53913,60.181925 C 209.71974,52.018487 216.51558,49.909804 222.32778,54.336576 C 229.56529,50.77863 235.47706,46.858129 238.39306,57.097702 C 242.95046,64.630061 252.34596,69.526668 260.8712,69.272133 C 267.93227,64.871263 275.56492,63.027328 283.84108,64.062198 C 292.8502,64.417443 301.31206,68.739079 310.51372,69.062198 C 322.46521,69.149992 331.00704,78.414137 340.24261,84.313819 C 352.84637,88.410319 366.02676,86.951809 378.80304,90.069029 C 386.58405,92.227179 389.87714,103.5066 399.16624,103.13942 C 414.73696,107.56303 433.1587,99.344269 446.83052,110.59948 C 459.26129,118.13486 466.68669,132.12261 478.7194,139.88106 C 492.1901,145.91982 505.08022,154.4113 520.3224,154.47203 C 530.24074,158.12559 538.84372,165.55782 548.37087,170.49078 C 552.21323,177.07171 554.62421,185.10299 562.81406,187.27885 C 572.01561,193.56999 584.51037,195.77203 591.57638,204.48001 C 592.18746,215.37366 603.98657,218.88877 609.48354,226.60625 C 613.8837,233.41485 611.59025,240.17074 608.37087,246.91934 C 609.80888,257.03377 593.39252,257.60569 599.02556,267.19097 C 609.26624,271.58743 602.72027,285.45912 614.2173,287.64655 C 619.03548,293.95903 626.57467,295.95549 633.99028,296.70762 C 644.32835,297.5851 639.50604,306.90778 638.97621,313.8393 C 638.24563,320.03381 640.4359,328.46855 647.19573,330.38354 C 655.85664,336.51596 646.5033,340.50192 641.37735,344.72629 C 627.97071,348.50248 630.38609,360.44334 626.96516,371.22871 C 621.24303,375.73802 611.07094,374.80417 604.97537,369.94087 C 597.58254,366.00078 590.28804,361.92184 584.4178,355.83186 C 575.92134,352.9317 569.91279,365.93307 561.89437,359.99373 C 546.55186,351.41759 527.48917,353.03752 513.15277,342.17015 C 504.92311,339.8928 502.08801,328.65943 492.50677,330.25275 C 484.87631,330.77881 476.48882,331.4635 471.31332,337.81291 C 465.73461,343.29963 458.7752,344.86965 451.27229,342.78119 C 438.60902,341.08287 425.80129,335.829 413.2267,340.61203 C 402.05448,344.7524 395.22443,331.10877 384.41786,331.20437 C 377.04649,334.76299 367.41236,338.80917 359.79439,333.10779 C 354.01713,329.25521 354.03563,320.1026 352.10047,313.74007 C 352.19229,306.11826 347.66964,300.52653 340.08604,299.27532 C 331.98866,297.5671 324.12852,292.54268 315.71721,295.2227 C 311.66727,301.46955 315.2248,310.23528 308.03224,314.73545 C 303.25212,320.5311 295.00647,318.86949 289.4656,314.9265 C 281.44908,307.91769 273.1686,300.81928 268.24004,291.18211 C 275.75638,287.95437 275.01825,279.25525 270.93352,273.50383 C 266.25496,263.00825 258.74717,253.45278 251.00215,245.22886 C 240.88501,243.05087 231.05472,242.02395 224.80348,231.07803 C 217.51566,222.84248 203.03837,230.96517 197.04973,220.49685 C 188.2932,213.4002 185.24357,201.72011 181.87201,191.50774 C 182.87244,184.26927 180.46762,177.38389 178.50398,170.81152 C 180.0635,165.85984 190.78111,157.21254 179.50305,156.32673 C 172.01844,158.35078 165.30451,153.30025 170.25525,145.72013 C 172.97792,137.57605 168.57366,134.88607 161.41614,132.09978 C 151.94167,127.87438 164.37502,123.22478 168.56026,120.24548 C 169.44951,119.61296 170.33876,118.98043 171.22801,118.34791 z "
       id="path4226" />
    <path
       style="fill:none;fill-opacity:0.75;fill-rule:evenodd;stroke:#000000;stroke-width:3;stroke-linecap:butt;stroke-linejoin:miter;stroke-miterlimit:4;stroke-dasharray:none;stroke-opacity:1"
       d="M 645.48901,298.005 C 648.39627,298.29984 651.47063,297.8924 654.14878,299.29252 C 656.68686,300.20533 659.24642,301.12921 661.375,302.83505 C 664.35296,304.77299 667.14096,307.09449 670.55256,308.23855 C 672.64069,309.29614 674.71525,310.32235 676.70927,308.54646 C 679.18844,307.32397 681.69135,306.14899 684.1458,304.87684 C 685.43498,302.54087 688.13945,301.96819 690.46355,303.14307 C 692.5554,303.92266 694.49665,305.02108 696.04379,306.65543 C 699.01364,309.24815 701.98348,311.84088 704.95332,314.43361"
       id="path4239" />
    <path
       style="fill:none;fill-opacity:0.75;fill-rule:evenodd;stroke:#ffffff;stroke-width:2;stroke-linecap:butt;stroke-linejoin:miter;stroke-miterlimit:4;stroke-dasharray:none;stroke-opacity:1"
       d="M 645.39972,298.00501 C 648.30698,298.29985 651.38134,297.89241 654.05949,299.29253 C 656.59757,300.20534 659.15713,301.12922 661.28571,302.83506 C 664.26367,304.773 667.05167,307.0945 670.46327,308.23856 C 672.5514,309.29615 674.62596,310.32236 676.61998,308.54647 C 679.09915,307.32398 681.60206,306.149 684.05651,304.87685 C 685.34569,302.54088 688.05016,301.9682 690.37426,303.14308 C 692.46611,303.92267 694.40736,305.02109 695.9545,306.65544 C 698.92435,309.24816 701.89419,311.84089 704.86403,314.43362"
       id="path4243" />
    <path
       style="fill:none;fill-opacity:0.75;fill-rule:evenodd;stroke:#000000;stroke-width:3;stroke-linecap:butt;stroke-linejoin:miter;stroke-miterlimit:4;stroke-dasharray:none;stroke-opacity:1"
       d="M 759.40198,281.34738 C 757.5497,286.76499 753.57478,292.91643 747.06458,292.40958 C 741.16311,290.92605 735.33485,293.13634 732.61296,298.67678 C 728.72388,299.21494 722.43115,292.21538 718.38468,296.87661 C 712.08455,301.85158 712.76854,311.73348 705.61019,316.16746 C 702.19157,321.5154 701.94206,330.28072 706.2533,335.181 C 710.10771,340.19089 723.05348,337.79646 720.2777,346.64356 C 719.83408,354.02735 723.76166,360.8925 727.47026,367.03428 C 733.37109,374.35976 738.99104,382.45364 747.21213,387.3264 C 754.39107,391.83227 758.90169,382.84718 762.44722,377.9682 C 766.50384,371.79583 771.70627,366.43857 777.07967,361.40196 C 784.26193,361.6967 789.21063,367.85642 793.87197,372.62338 C 800.53373,375.4899 806.67524,367.76677 813.71163,369.34531 C 821.66605,368.44681 829.33063,370.70227 836.51306,373.90363 C 837.74677,374.36627 838.98048,374.82891 840.21419,375.29155"
       id="path4245" />
    <path
       style="fill:none;fill-opacity:0.75;fill-rule:evenodd;stroke:#ffffff;stroke-width:2;stroke-linecap:butt;stroke-linejoin:miter;stroke-miterlimit:4;stroke-dasharray:none;stroke-opacity:1"
       d="M 759.37711,281.37124 C 757.52483,286.78885 753.54991,292.94029 747.03971,292.43344 C 741.13824,290.94991 735.30998,293.1602 732.58809,298.70064 C 728.69901,299.2388 722.40628,292.23924 718.35981,296.90047 C 712.05968,301.87544 712.74367,311.75734 705.58532,316.19132 C 702.1667,321.53926 701.91719,330.30458 706.22843,335.20486 C 710.08284,340.21475 723.02861,337.82032 720.25283,346.66742 C 719.80921,354.05121 723.73679,360.91636 727.44539,367.05814 C 733.34622,374.38362 738.96617,382.4775 747.18726,387.35026 C 754.3662,391.85613 758.87682,382.87104 762.42235,377.99206 C 766.47897,371.81969 771.6814,366.46243 777.0548,361.42582 C 784.23706,361.72056 789.18576,367.88028 793.8471,372.64724 C 800.50886,375.51376 806.65037,367.79063 813.68676,369.36917 C 821.64118,368.47067 829.30576,370.72613 836.48819,373.92749 C 837.7219,374.39013 838.95561,374.85277 840.18932,375.31541"
       id="path4249" />
    <path
       transform="translate(-122.99628,-249.923)"
       d="M 594.5 380 A 4.5 4.5 0 1 1  585.5,380 A 4.5 4.5 0 1 1  594.5 380 z"
       sodipodi:type="arc"
       style="fill:#ffffff;fill-opacity:1;fill-rule:evenodd;stroke:#000000;stroke-width:1.5;stroke-linecap:butt;stroke-linejoin:miter;stroke-miterlimit:4;stroke-dasharray:none;stroke-dashoffset:0;stroke-opacity:1;display:inline"
       id="path4903"
       sodipodi:cx="590"
       sodipodi:cy="380"
       sodipodi:rx="4.5"
       sodipodi:ry="4.5" />
    <path
       transform="translate(-122.99628,-249.923)"
       d="M 592 380 A 2 2 0 1 1  588,380 A 2 2 0 1 1  592 380 z"
       sodipodi:type="arc"
       style="fill:#000000;fill-opacity:1;stroke:none"
       id="path4905"
       sodipodi:cx="590"
       sodipodi:cy="380"
       sodipodi:rx="2"
       sodipodi:ry="2" />
    <text
       sodipodi:linespacing="100%"
       id="text4907"
       y="120.69856"
       x="511.87357"
       style="font-size:18px;font-style:normal;font-variant:normal;font-weight:normal;font-stretch:normal;text-align:center;line-height:100%;writing-mode:lr-tb;text-anchor:middle;fill:#000000;fill-opacity:1;stroke:none;stroke-width:1px;stroke-linecap:butt;stroke-linejoin:miter;stroke-opacity:1;display:inline;font-family:Arial"
       xml:space="preserve"><tspan
         id="tspan4909"
         y="120.69856"
         x="511.87357"
         sodipodi:role="line">Fomboni</tspan></text>
    <path
       sodipodi:type="arc"
       style="fill:#ffffff;fill-opacity:1;fill-rule:evenodd;stroke:#000000;stroke-width:1.5;stroke-linecap:butt;stroke-linejoin:miter;stroke-miterlimit:4;stroke-dasharray:none;stroke-dashoffset:0;stroke-opacity:1"
       id="point &quot;Vilie&quot;"
       sodipodi:cx="591"
       sodipodi:cy="383.5"
       sodipodi:rx="4.5"
       sodipodi:ry="4.5"
       d="M 595.5 383.5 A 4.5 4.5 0 1 1  586.5,383.5 A 4.5 4.5 0 1 1  595.5 383.5 z"
       transform="translate(-16.380029,-190.74806)" />
    <text
       sodipodi:linespacing="100%"
       id="texte &quot;Ville&quot;"
       y="181.21219"
       x="602.0885"
       style="font-size:16px;font-style:normal;font-variant:normal;font-weight:normal;font-stretch:normal;text-align:center;line-height:100%;writing-mode:lr-tb;text-anchor:middle;fill:#000000;fill-opacity:1;stroke:none;stroke-width:1px;stroke-linecap:butt;stroke-linejoin:miter;stroke-opacity:1;font-family:Arial"
       xml:space="preserve"><tspan
         y="181.21219"
         x="602.0885"
         id="tspan5902"
         sodipodi:role="line">Djoezi</tspan></text>
    <path
       sodipodi:type="arc"
       style="fill:#ffffff;fill-opacity:1;fill-rule:evenodd;stroke:#000000;stroke-width:1.5;stroke-linecap:butt;stroke-linejoin:miter;stroke-miterlimit:4;stroke-dasharray:none;stroke-dashoffset:0;stroke-opacity:1"
       id="path4922"
       sodipodi:cx="591"
       sodipodi:cy="383.5"
       sodipodi:rx="4.5"
       sodipodi:ry="4.5"
       d="M 595.5 383.5 A 4.5 4.5 0 1 1  586.5,383.5 A 4.5 4.5 0 1 1  595.5 383.5 z"
       transform="translate(50.2033,-83.709257)" />
    <path
       sodipodi:type="arc"
       style="fill:#ffffff;fill-opacity:1;fill-rule:evenodd;stroke:#000000;stroke-width:1.5;stroke-linecap:butt;stroke-linejoin:miter;stroke-miterlimit:4;stroke-dasharray:none;stroke-dashoffset:0;stroke-opacity:1"
       id="path4924"
       sodipodi:cx="591"
       sodipodi:cy="383.5"
       sodipodi:rx="4.5"
       sodipodi:ry="4.5"
       d="M 595.5 383.5 A 4.5 4.5 0 1 1  586.5,383.5 A 4.5 4.5 0 1 1  595.5 383.5 z"
       transform="translate(114.48901,-68.709257)" />
    <path
       sodipodi:type="arc"
       style="fill:#ffffff;fill-opacity:1;fill-rule:evenodd;stroke:#000000;stroke-width:1.5;stroke-linecap:butt;stroke-linejoin:miter;stroke-miterlimit:4;stroke-dasharray:none;stroke-dashoffset:0;stroke-opacity:1"
       id="path4926"
       sodipodi:cx="591"
       sodipodi:cy="383.5"
       sodipodi:rx="4.5"
       sodipodi:ry="4.5"
       d="M 595.5 383.5 A 4.5 4.5 0 1 1  586.5,383.5 A 4.5 4.5 0 1 1  595.5 383.5 z"
       transform="translate(169.48901,-102.99497)" />
    <path
       sodipodi:type="arc"
       style="fill:#ffffff;fill-opacity:1;fill-rule:evenodd;stroke:#000000;stroke-width:1.5;stroke-linecap:butt;stroke-linejoin:miter;stroke-miterlimit:4;stroke-dasharray:none;stroke-dashoffset:0;stroke-opacity:1"
       id="path4928"
       sodipodi:cx="591"
       sodipodi:cy="383.5"
       sodipodi:rx="4.5"
       sodipodi:ry="4.5"
       d="M 595.5 383.5 A 4.5 4.5 0 1 1  586.5,383.5 A 4.5 4.5 0 1 1  595.5 383.5 z"
       transform="translate(203.77472,24.862172)" />
    <path
       sodipodi:type="arc"
       style="fill:#ffffff;fill-opacity:1;fill-rule:evenodd;stroke:#000000;stroke-width:1.5;stroke-linecap:butt;stroke-linejoin:miter;stroke-miterlimit:4;stroke-dasharray:none;stroke-dashoffset:0;stroke-opacity:1"
       id="path4930"
       sodipodi:cx="591"
       sodipodi:cy="383.5"
       sodipodi:rx="4.5"
       sodipodi:ry="4.5"
       d="M 595.5 383.5 A 4.5 4.5 0 1 1  586.5,383.5 A 4.5 4.5 0 1 1  595.5 383.5 z"
       transform="translate(250.91759,-7.9949711)" />
    <path
       sodipodi:type="arc"
       style="fill:#ffffff;fill-opacity:1;fill-rule:evenodd;stroke:#000000;stroke-width:1.5;stroke-linecap:butt;stroke-linejoin:miter;stroke-miterlimit:4;stroke-dasharray:none;stroke-dashoffset:0;stroke-opacity:1"
       id="path4932"
       sodipodi:cx="591"
       sodipodi:cy="383.5"
       sodipodi:rx="4.5"
       sodipodi:ry="4.5"
       d="M 595.5 383.5 A 4.5 4.5 0 1 1  586.5,383.5 A 4.5 4.5 0 1 1  595.5 383.5 z"
       transform="translate(-182.65384,-17.994971)" />
    <path
       sodipodi:type="arc"
       style="fill:#ffffff;fill-opacity:1;fill-rule:evenodd;stroke:#000000;stroke-width:1.5;stroke-linecap:butt;stroke-linejoin:miter;stroke-miterlimit:4;stroke-dasharray:none;stroke-dashoffset:0;stroke-opacity:1"
       id="path4934"
       sodipodi:cx="591"
       sodipodi:cy="383.5"
       sodipodi:rx="4.5"
       sodipodi:ry="4.5"
       d="M 595.5 383.5 A 4.5 4.5 0 1 1  586.5,383.5 A 4.5 4.5 0 1 1  595.5 383.5 z"
       transform="translate(-270.51099,-88.709257)" />
    <path
       sodipodi:type="arc"
       style="fill:#ffffff;fill-opacity:1;fill-rule:evenodd;stroke:#000000;stroke-width:1.5;stroke-linecap:butt;stroke-linejoin:miter;stroke-miterlimit:4;stroke-dasharray:none;stroke-dashoffset:0;stroke-opacity:1"
       id="path4936"
       sodipodi:cx="591"
       sodipodi:cy="383.5"
       sodipodi:rx="4.5"
       sodipodi:ry="4.5"
       d="M 595.5 383.5 A 4.5 4.5 0 1 1  586.5,383.5 A 4.5 4.5 0 1 1  595.5 383.5 z"
       transform="translate(-317.2967,-87.280685)" />
    <path
       sodipodi:type="arc"
       style="fill:#ffffff;fill-opacity:1;fill-rule:evenodd;stroke:#000000;stroke-width:1.5;stroke-linecap:butt;stroke-linejoin:miter;stroke-miterlimit:4;stroke-dasharray:none;stroke-dashoffset:0;stroke-opacity:1"
       id="path4938"
       sodipodi:cx="591"
       sodipodi:cy="383.5"
       sodipodi:rx="4.5"
       sodipodi:ry="4.5"
       d="M 595.5 383.5 A 4.5 4.5 0 1 1  586.5,383.5 A 4.5 4.5 0 1 1  595.5 383.5 z"
       transform="translate(-359.7967,-143.70926)" />
    <path
       sodipodi:type="arc"
       style="fill:#ffffff;fill-opacity:1;fill-rule:evenodd;stroke:#000000;stroke-width:1.5;stroke-linecap:butt;stroke-linejoin:miter;stroke-miterlimit:4;stroke-dasharray:none;stroke-dashoffset:0;stroke-opacity:1"
       id="path4940"
       sodipodi:cx="591"
       sodipodi:cy="383.5"
       sodipodi:rx="4.5"
       sodipodi:ry="4.5"
       d="M 595.5 383.5 A 4.5 4.5 0 1 1  586.5,383.5 A 4.5 4.5 0 1 1  595.5 383.5 z"
       transform="translate(-406.93956,-224.42354)" />
    <path
       sodipodi:type="arc"
       style="fill:#ffffff;fill-opacity:1;fill-rule:evenodd;stroke:#000000;stroke-width:1.5;stroke-linecap:butt;stroke-linejoin:miter;stroke-miterlimit:4;stroke-dasharray:none;stroke-dashoffset:0;stroke-opacity:1"
       id="path4942"
       sodipodi:cx="591"
       sodipodi:cy="383.5"
       sodipodi:rx="4.5"
       sodipodi:ry="4.5"
       d="M 595.5 383.5 A 4.5 4.5 0 1 1  586.5,383.5 A 4.5 4.5 0 1 1  595.5 383.5 z"
       transform="translate(-384.7967,-316.5664)" />
    <path
       sodipodi:type="arc"
       style="fill:#ffffff;fill-opacity:1;fill-rule:evenodd;stroke:#000000;stroke-width:1.5;stroke-linecap:butt;stroke-linejoin:miter;stroke-miterlimit:4;stroke-dasharray:none;stroke-dashoffset:0;stroke-opacity:1"
       id="path4944"
       sodipodi:cx="591"
       sodipodi:cy="383.5"
       sodipodi:rx="4.5"
       sodipodi:ry="4.5"
       d="M 595.5 383.5 A 4.5 4.5 0 1 1  586.5,383.5 A 4.5 4.5 0 1 1  595.5 383.5 z"
       transform="translate(-335.51099,-315.85211)" />
    <text
       sodipodi:linespacing="100%"
       id="text4946"
       y="87.874321"
       x="270.95969"
       style="font-size:16px;font-style:normal;font-variant:normal;font-weight:normal;font-stretch:normal;text-align:center;line-height:100%;writing-mode:lr-tb;text-anchor:middle;fill:#000000;fill-opacity:1;stroke:none;stroke-width:1px;stroke-linecap:butt;stroke-linejoin:miter;stroke-opacity:1;font-family:Arial"
       xml:space="preserve"><tspan
         y="87.874321"
         x="270.95969"
         id="tspan4948"
         sodipodi:role="line">Hoani</tspan></text>
    <text
       sodipodi:linespacing="100%"
       id="text4950"
       y="87.405136"
       x="208.27585"
       style="font-size:16px;font-style:normal;font-variant:normal;font-weight:normal;font-stretch:normal;text-align:center;line-height:100%;writing-mode:lr-tb;text-anchor:middle;fill:#000000;fill-opacity:1;stroke:none;stroke-width:1px;stroke-linecap:butt;stroke-linejoin:miter;stroke-opacity:1;font-family:Arial"
       xml:space="preserve"><tspan
         y="87.405136"
         x="208.27585"
         id="tspan4952"
         sodipodi:role="line">Domoni</tspan></text>
    <text
       sodipodi:linespacing="100%"
       id="text4954"
       y="151.69086"
       x="222.56157"
       style="font-size:16px;font-style:normal;font-variant:normal;font-weight:normal;font-stretch:normal;text-align:center;line-height:100%;writing-mode:lr-tb;text-anchor:middle;fill:#000000;fill-opacity:1;stroke:none;stroke-width:1px;stroke-linecap:butt;stroke-linejoin:miter;stroke-opacity:1;font-family:Arial"
       xml:space="preserve"><tspan
         y="151.69086"
         x="222.56157"
         id="tspan4956"
         sodipodi:role="line">Miringoni</tspan></text>
    <text
       sodipodi:linespacing="100%"
       id="text4958"
       y="233.11943"
       x="270.4187"
       style="font-size:16px;font-style:normal;font-variant:normal;font-weight:normal;font-stretch:normal;text-align:center;line-height:100%;writing-mode:lr-tb;text-anchor:middle;fill:#000000;fill-opacity:1;stroke:none;stroke-width:1px;stroke-linecap:butt;stroke-linejoin:miter;stroke-opacity:1;font-family:Arial"
       xml:space="preserve"><tspan
         y="233.11943"
         x="270.4187"
         id="tspan4960"
         sodipodi:role="line">Ouallah 1</tspan></text>
    <text
       sodipodi:linespacing="100%"
       id="text4962"
       y="295.52121"
       x="223.71782"
       style="font-size:16px;font-style:normal;font-variant:normal;font-weight:normal;font-stretch:normal;text-align:center;line-height:100%;writing-mode:lr-tb;text-anchor:middle;fill:#000000;fill-opacity:1;stroke:none;stroke-width:1px;stroke-linecap:butt;stroke-linejoin:miter;stroke-opacity:1;font-family:Arial"
       xml:space="preserve"><tspan
         y="295.52121"
         x="223.71782"
         id="tspan4964"
         sodipodi:role="line">Ouallah 2</tspan></text>
    <text
       sodipodi:linespacing="100%"
       id="text4966"
       y="284.80499"
       x="358.19467"
       style="font-size:16px;font-style:normal;font-variant:normal;font-weight:normal;font-stretch:normal;text-align:center;line-height:100%;writing-mode:lr-tb;text-anchor:middle;fill:#000000;fill-opacity:1;stroke:none;stroke-width:1px;stroke-linecap:butt;stroke-linejoin:miter;stroke-opacity:1;font-family:Arial"
       xml:space="preserve"><tspan
         y="284.80499"
         x="358.19467"
         id="tspan4968"
         sodipodi:role="line">Ndrondroni</tspan></text>
    <text
       sodipodi:linespacing="100%"
       id="text4970"
       y="387.84055"
       x="449.1084"
       style="font-size:16px;font-style:normal;font-variant:normal;font-weight:normal;font-stretch:normal;text-align:center;line-height:100%;writing-mode:lr-tb;text-anchor:middle;fill:#000000;fill-opacity:1;stroke:none;stroke-width:1px;stroke-linecap:butt;stroke-linejoin:miter;stroke-opacity:1;font-family:Arial"
       xml:space="preserve"><tspan
         y="387.84055"
         x="449.1084"
         id="tspan4972"
         sodipodi:role="line">Nioumachoua</tspan></text>
    <text
       sodipodi:linespacing="100%"
       id="text4974"
       y="291.87607"
       x="664.776"
       style="font-size:16px;font-style:normal;font-variant:normal;font-weight:normal;font-stretch:normal;text-align:center;line-height:100%;writing-mode:lr-tb;text-anchor:middle;fill:#000000;fill-opacity:1;stroke:none;stroke-width:1px;stroke-linecap:butt;stroke-linejoin:miter;stroke-opacity:1;font-family:Arial"
       xml:space="preserve"><tspan
         y="291.87607"
         x="664.776"
         id="tspan4976"
         sodipodi:role="line">Wanani</tspan></text>
    <text
       sodipodi:linespacing="100%"
       id="text4978"
       y="320.66541"
       x="743.06287"
       style="font-size:16px;font-style:normal;font-variant:normal;font-weight:normal;font-stretch:normal;text-align:center;line-height:100%;writing-mode:lr-tb;text-anchor:middle;fill:#000000;fill-opacity:1;stroke:none;stroke-width:1px;stroke-linecap:butt;stroke-linejoin:miter;stroke-opacity:1;font-family:Arial"
       xml:space="preserve"><tspan
         y="320.66541"
         x="743.06287"
         id="tspan4980"
         sodipodi:role="line">Kangani</tspan></text>
    <text
       sodipodi:linespacing="100%"
       id="text4982"
       y="273.69333"
       x="817.81409"
       style="font-size:16px;font-style:normal;font-variant:normal;font-weight:normal;font-stretch:normal;text-align:center;line-height:100%;writing-mode:lr-tb;text-anchor:middle;fill:#000000;fill-opacity:1;stroke:none;stroke-width:1px;stroke-linecap:butt;stroke-linejoin:miter;stroke-opacity:1;font-family:Arial"
       xml:space="preserve"><tspan
         y="273.69333"
         x="817.81409"
         id="tspan4984"
         sodipodi:role="line">Hagnamouada</tspan></text>
    <text
       sodipodi:linespacing="100%"
       id="text4986"
       y="373.19333"
       x="875.39282"
       style="font-size:16px;font-style:normal;font-variant:normal;font-weight:normal;font-stretch:normal;text-align:center;line-height:100%;writing-mode:lr-tb;text-anchor:middle;fill:#000000;fill-opacity:1;stroke:none;stroke-width:1px;stroke-linecap:butt;stroke-linejoin:miter;stroke-opacity:1;font-family:Arial"
       xml:space="preserve"><tspan
         y="373.19333"
         x="875.39282"
         id="tspan4988"
         sodipodi:role="line">Itsamia</tspan></text>
    <text
       sodipodi:linespacing="100%"
       id="text4990"
       y="401.9827"
       x="758.21515"
       style="font-size:16px;font-style:normal;font-variant:normal;font-weight:normal;font-stretch:normal;text-align:center;line-height:100%;writing-mode:lr-tb;text-anchor:middle;fill:#000000;fill-opacity:1;stroke:none;stroke-width:1px;stroke-linecap:butt;stroke-linejoin:miter;stroke-opacity:1;font-family:Arial"
       xml:space="preserve"><tspan
         y="401.9827"
         x="758.21515"
         id="tspan4992"
         sodipodi:role="line">Hamavouna</tspan></text>
    <text
       xml:space="preserve"
       style="font-size:20px;font-style:italic;font-variant:normal;font-weight:bold;font-stretch:normal;text-align:center;line-height:125%;writing-mode:lr-tb;text-anchor:middle;fill:#787878;fill-opacity:1;stroke:none;stroke-width:1px;stroke-linecap:butt;stroke-linejoin:miter;stroke-opacity:1;font-family:Arial"
       x="441.36523"
       y="234.24242"
       id="text6713"
       sodipodi:linespacing="125%"><tspan
         sodipodi:role="line"
         id="tspan6715"
         x="441.36523"
         y="234.24242">Mohéli</tspan></text>
    <g
       id="g6766"
       transform="translate(0.7142857,-3.5714286)">
      <path
         id="path6762"
         d="M 864.00789,88.155685 L 902.39368,88.155685"
         style="fill:none;fill-opacity:0.75;fill-rule:evenodd;stroke:#000000;stroke-width:3;stroke-linecap:butt;stroke-linejoin:miter;stroke-miterlimit:4;stroke-dasharray:none;stroke-opacity:1" />
      <path
         id="path6764"
         d="M 863.50789,88.155689 L 901.89368,88.155689"
         style="fill:none;fill-opacity:0.75;fill-rule:evenodd;stroke:#ffffff;stroke-width:2;stroke-linecap:butt;stroke-linejoin:miter;stroke-miterlimit:4;stroke-dasharray:none;stroke-opacity:1" />
    </g>
    <text
       sodipodi:linespacing="100%"
       id="text6770"
       y="90.217072"
       x="935.13983"
       style="font-size:16px;font-style:normal;font-variant:normal;font-weight:normal;font-stretch:normal;text-align:center;line-height:100%;writing-mode:lr-tb;text-anchor:middle;fill:#000000;fill-opacity:1;stroke:none;stroke-width:1px;stroke-linecap:butt;stroke-linejoin:miter;stroke-opacity:1;font-family:Arial"
       xml:space="preserve"><tspan
         y="90.217072"
         x="935.13983"
         id="tspan6772"
         sodipodi:role="line">Route</tspan></text>
    <path
       sodipodi:type="arc"
       style="fill:#ffffff;fill-opacity:1;fill-rule:evenodd;stroke:#000000;stroke-width:1.5;stroke-linecap:butt;stroke-linejoin:miter;stroke-miterlimit:4;stroke-dasharray:none;stroke-dashoffset:0;stroke-opacity:1"
       id="path6774"
       sodipodi:cx="591"
       sodipodi:cy="383.5"
       sodipodi:rx="4.5"
       sodipodi:ry="4.5"
       d="M 595.5 383.5 A 4.5 4.5 0 1 1  586.5,383.5 A 4.5 4.5 0 1 1  595.5 383.5 z"
       transform="translate(278.25609,-271.03644)" />
    <text
       sodipodi:linespacing="100%"
       id="text6776"
       y="119.0423"
       x="912.90485"
       style="font-size:16px;font-style:normal;font-variant:normal;font-weight:normal;font-stretch:normal;text-align:center;line-height:100%;writing-mode:lr-tb;text-anchor:middle;fill:#000000;fill-opacity:1;stroke:none;stroke-width:1px;stroke-linecap:butt;stroke-linejoin:miter;stroke-opacity:1;font-family:Arial"
       xml:space="preserve"><tspan
         y="119.0423"
         x="912.90485"
         id="tspan6778"
         sodipodi:role="line">Village</tspan></text>
  </g>
</svg>
